<?xml version="1.0" encoding="UTF-8"?>
<svg id="Layer_1" data-name="Layer 1" xmlns="http://www.w3.org/2000/svg" viewBox="0 0 1024 1024">
  <defs>
    <style>
      .cls-1 {
        fill: #78cbc1;
      }

      .cls-2 {
        fill: #4960ac;
      }

      .cls-3 {
        fill: #627a80;
      }

      .cls-4 {
        fill: #74cabe;
      }

      .cls-5 {
        fill: #7b8c90;
      }
    </style>
  </defs>
  <path class="cls-2" d="m695.6,451.66c-6.46,21.66-12.8,43.06-19.23,64.43-6.39,21.25-13.01,42.44-19.29,63.73-7.34,24.88-14.34,49.86-21.64,74.75-2.56,8.72-4.86,17.66-9.33,25.61-10.22,18.19-27,26.35-46.79,24.1-20.09-2.28-36.17-13.11-43.13-33.41-4.71-13.72-8.13-27.88-12.16-41.84-.63-2.17-1.08-4.17,1.01-5.9,19.57-16.15,26.46-38.56,31.15-62.24,1.23-6.2,3.22-12.46,7.89-19.99,5.61,18.95,10.75,36.32,15.89,53.69,8.99-28.57,17.72-56.72,25.14-85.28,7.28-28,16.47-55.5,24.66-83.28,7.57-25.68,14.84-51.44,22.37-77.13,3.63-12.37,7.9-24.83,20.01-31.41,22.44-12.19,57.23-7.51,67.21,25.66,8.71,28.96,17.09,58.01,25.41,87.09,11.44,39.93,22.55,79.96,34.08,119.86,4.15,14.34,9.13,28.44,14.49,45.02,4.07-13.37,7.53-24.5,10.86-35.67,7.48-25.11,15.21-50.15,22.26-75.38,9.24-33.02,19.91-65.62,29.12-98.66,4.81-17.25,9.26-34.81,16.53-51.34,5.41-12.28,14.18-20.44,27.98-21.88,13.96-1.45,26.03,2.11,33.52,14.96,6.39,10.96,5.92,22.74,2.38,34.48-6.65,22.02-13.48,43.99-20.24,65.97-10.3,33.46-20.83,66.85-30.87,100.39-13.82,46.18-27.2,92.5-40.89,138.72-6.98,23.57-25.38,37.39-48.75,38.2-27.96.97-47.45-15.11-53.46-36.78-8.23-29.67-16.89-59.21-25.68-88.72-6.34-21.3-13.31-42.41-19.78-63.67-5.91-19.43-11.51-38.94-17.29-58.41-.57-1.92-.63-4.19-3.43-5.68Z"/>
  <path class="cls-2" d="m135.54,522.41c5.49,49.5,29.24,86.95,73.61,110.41,25.06,13.25,52.22,15.89,80.04,14.01,31.63-2.13,60.07-12.51,85.03-32.41,12.01-9.58,23.05-7.76,33.15,3.97,12.41,14.41,12.05,39.42-3.84,52.23-25.94,20.92-55.63,32.57-87.9,39.03-17.89,3.58-35.89,4.35-53.91,3.06-76.67-5.48-135.83-39.38-172.91-108.19-11.87-22.03-18.41-45.78-21.56-70.56-13.8-108.69,51.98-205.2,163.31-226,17.46-3.26,35.33-5.08,53.25-3.27.64.28,1.28.56,1.93.83,44.87,1.99,85.54,15.12,119.61,45.44,3.6,3.21,6.8,7.01,9.59,10.97,5.26,7.47,5.76,15.59,1.81,23.85-2.94,6.15-6.83,11.68-11.42,16.71-10.33,11.31-20.86,12.71-32.82,3.18-16.06-12.8-33.32-23.04-53.02-29.14-10.01-3.1-20.42-3.79-30.59-5.83-10.91-2.39-21.84-2.4-32.77-.12-72.07,6.8-115.57,63.37-120.6,123.93-2.39,9.3-2.19,18.6,0,27.91Z"/>
  <path class="cls-4" d="m425.69,480.19c1.83-30.99,16.55-54.87,40.9-73.17,28.57-21.47,61.48-25.23,95.77-22.45,5.54.45,10.99,2.15,16.44,3.48,1.47.36,3.47.61,3.9,2.48.54,2.33-1.76,3.08-3.03,4.31-.74.72-1.83,1.19-2.85,1.5-28.12,8.71-44.03,29.99-56.99,54.63-9.44,17.95-19.18,35.88-36.11,48.26-9.98,7.3-20.77,12.84-33.47,13.38-15.11.64-23.61-8.36-24.55-25.9-.12-2.16-.02-4.34-.02-6.51Z"/>
  <path class="cls-1" d="m562.23,510.91c-11.04,15.57-17.79,31.21-21.3,48.21-1.44,6.99-2.95,13.96-4.45,20.93-4.22,19.61-23.04,37.47-42.67,41.45-17.87,3.62-25.89-12.31-24.11-23.72,2.31-14.8,7.58-28.58,16.74-40.52,18.16-23.66,42.38-38.26,70.8-46.31.97-.27,2.08-.03,4.98-.03Z"/>
  <path class="cls-2" d="m467.59,312.11c18.56.02,27.67,6.87,33.14,24.62,2.83,9.17,6.01,18.23,8.96,27.36,1.61,5.01,1.45,7.51-5.46,8.89-18.81,3.77-35.54,12.78-50.54,24.73-4.22,3.36-6.77,4.69-8.45-2.11-3.99-16.19-11.78-31.42-12.89-48.32-1.37-20.84,17.29-37.55,35.24-35.18Z"/>
  <path class="cls-2" d="m432.42,536.72c0-.97-.21-1.85.04-2.58.8-2.39-2.43-6.63,2.38-7.02,4.76-.38,6.58,2.39,7.15,7.49,5.63,50.61,25.43,94.98,59.56,132.84,15.24,16.9,33.25,30.15,53.79,39.97,2.06.98,5.18,1.03,5.41,4.13.19,2.62,1.06,5.83-1.12,7.74-2.14,1.87-4.56-.3-6.7-1.21-36.6-15.49-62.83-42.48-83.95-75.29-17.27-26.83-27.95-56.28-34.65-87.2-1.31-6.05-3.71-12.46-1.91-18.88Z"/>
  <path class="cls-2" d="m538.41,448.58c4.22,15.3,8.06,29.45,12.05,43.57.94,3.32.1,4.75-3.3,5.85-31.04,9.98-56.11,28.57-76.6,53.68-1.31,1.6-2.32,4.79-4.39,4.2-2.59-.74-2.78-3.86-3.17-6.57-.71-4.94-2.31-9.76-3.08-14.69-.58-3.7-.48-7.43,4.18-9.02,34.32-11.65,54.72-37.37,69.43-68.83.92-1.96,1.87-3.9,2.85-5.83.23-.45.68-.8,2.04-2.36Z"/>
  <path class="cls-5" d="m256.13,370.57c10.93-2.29,21.85-2.28,32.77.12-10.92-.04-21.85-.08-32.77-.12Z"/>
  <path class="cls-5" d="m135.54,522.41c-2.2-9.3-2.4-18.6,0-27.91,0,9.3,0,18.6,0,27.91Z"/>
  <path class="cls-3" d="m285.75,305.51c-.64-.28-1.28-.56-1.93-.83,1-.54,1.47.13,1.93.83Z"/>
</svg>