<?xml version="1.0" encoding="UTF-8"?>
<svg id="Layer_1" data-name="Layer 1" xmlns="http://www.w3.org/2000/svg" viewBox="0 0 1024 1024">
  <defs>
    <style>
      .cls-1 {
        fill: #78cbc1;
      }

      .cls-2 {
        fill: #4960ac;
      }

      .cls-3 {
        fill: #627a80;
      }

      .cls-4 {
        fill: #74cabe;
      }

      .cls-5 {
        fill: #7b8c90;
      }
    </style>
  </defs>
  <g>
    <path class="cls-2" d="m695.94,397.78c-6.47,21.7-12.82,43.14-19.26,64.55-6.41,21.29-13.04,42.52-19.33,63.85-7.35,24.93-14.37,49.95-21.68,74.89-2.56,8.74-4.87,17.69-9.35,25.66-10.24,18.22-27.05,26.4-46.87,24.15-20.13-2.29-36.24-13.13-43.21-33.47-4.72-13.75-8.14-27.94-12.18-41.92-.63-2.18-1.08-4.18,1.02-5.91,19.61-16.18,26.51-38.64,31.21-62.36,1.23-6.21,3.23-12.49,7.9-20.02,5.62,18.98,10.77,36.38,15.92,53.79,9.01-28.62,17.75-56.82,25.19-85.44,7.29-28.05,16.51-55.61,24.7-83.43,7.58-25.73,14.87-51.54,22.41-77.28,3.63-12.4,7.91-24.88,20.04-31.46,22.48-12.21,57.33-7.53,67.33,25.71,8.73,29.01,17.12,58.12,25.46,87.25,11.46,40,22.59,80.1,34.14,120.08,4.15,14.37,9.14,28.5,14.52,45.1,4.08-13.39,7.54-24.54,10.87-35.73,7.49-25.16,15.23-50.24,22.3-75.52,9.25-33.09,19.94-65.74,29.17-98.84,4.82-17.28,9.27-34.87,16.56-51.44,5.42-12.31,14.2-20.48,28.03-21.92,13.99-1.45,26.08,2.12,33.58,14.99,6.4,10.98,5.93,22.78,2.38,34.54-6.67,22.06-13.5,44.07-20.28,66.09-10.32,33.52-20.87,66.97-30.92,100.57-13.84,46.27-27.25,92.67-40.97,138.97-7,23.62-25.43,37.46-48.84,38.27-28.01.97-47.53-15.14-53.55-36.85-8.24-29.72-16.93-59.32-25.73-88.88-6.35-21.34-13.33-42.49-19.81-63.79-5.92-19.46-11.53-39.02-17.32-58.52-.57-1.92-.63-4.19-3.44-5.69Z"/>
    <path class="cls-2" d="m134.85,468.66c5.5,49.59,29.3,87.11,73.75,110.61,25.11,13.27,52.32,15.92,80.18,14.04,31.69-2.14,60.18-12.53,85.18-32.47,12.04-9.6,23.09-7.78,33.21,3.98,12.43,14.43,12.07,39.49-3.85,52.33-25.99,20.96-55.73,32.62-88.06,39.1-17.92,3.59-35.96,4.36-54,3.07-76.81-5.49-136.08-39.45-173.22-108.38-11.89-22.07-18.45-45.87-21.6-70.69-13.82-108.89,52.08-205.57,163.61-226.42,17.49-3.27,35.39-5.09,53.35-3.28.64.28,1.29.56,1.93.84,44.95,1.99,85.7,15.15,119.83,45.53,3.61,3.21,6.81,7.03,9.6,10.99,5.27,7.48,5.77,15.61,1.81,23.9-2.95,6.16-6.84,11.7-11.45,16.74-10.35,11.33-20.9,12.73-32.88,3.18-16.09-12.83-33.38-23.09-53.12-29.2-10.03-3.11-20.45-3.79-30.65-5.84-10.93-2.4-21.88-2.41-32.83-.12-72.2,6.81-115.78,63.48-120.83,124.16-2.4,9.32-2.19,18.64,0,27.96Z"/>
    <path class="cls-4" d="m425.53,426.37c1.83-31.04,16.58-54.97,40.98-73.3,28.62-21.51,61.59-25.28,95.94-22.49,5.55.45,11.01,2.16,16.47,3.48,1.47.36,3.48.61,3.91,2.48.54,2.34-1.76,3.09-3.04,4.32-.74.72-1.83,1.19-2.85,1.51-28.17,8.72-44.11,30.04-57.1,54.73-9.46,17.98-19.21,35.94-36.18,48.34-10,7.31-20.8,12.86-33.53,13.4-15.14.64-23.65-8.38-24.6-25.95-.12-2.17-.02-4.35-.02-6.52Z"/>
    <path class="cls-1" d="m562.32,457.13c-11.06,15.6-17.82,31.27-21.34,48.3-1.44,7-2.96,13.98-4.46,20.97-4.23,19.65-23.08,37.54-42.75,41.53-17.9,3.63-25.93-12.33-24.15-23.77,2.31-14.83,7.59-28.63,16.78-40.6,18.19-23.7,42.45-38.33,70.93-46.39.97-.27,2.08-.03,4.99-.03Z"/>
    <path class="cls-2" d="m467.51,257.97c18.6.02,27.72,6.88,33.21,24.67,2.83,9.19,6.02,18.26,8.97,27.41,1.62,5.01,1.45,7.52-5.47,8.91-18.85,3.77-35.6,12.8-50.63,24.77-4.23,3.37-6.79,4.7-8.46-2.11-4-16.22-11.8-31.47-12.91-48.41-1.38-20.88,17.32-37.62,35.3-35.24Z"/>
    <path class="cls-2" d="m432.27,483c0-.97-.21-1.85.04-2.58.8-2.39-2.44-6.64,2.38-7.03,4.77-.39,6.6,2.4,7.16,7.51,5.64,50.7,25.48,95.16,59.67,133.09,15.27,16.94,33.31,30.21,53.89,40.04,2.06.99,5.19,1.04,5.42,4.14.19,2.63,1.06,5.84-1.12,7.75-2.14,1.88-4.57-.3-6.71-1.21-36.67-15.51-62.95-42.56-84.11-75.43-17.3-26.88-28-56.39-34.71-87.36-1.31-6.06-3.72-12.49-1.91-18.91Z"/>
    <path class="cls-2" d="m538.46,394.69c4.22,15.32,8.07,29.51,12.08,43.65.94,3.32.1,4.76-3.31,5.86-31.1,10-56.21,28.62-76.74,53.78-1.31,1.6-2.32,4.8-4.4,4.21-2.59-.74-2.78-3.86-3.18-6.58-.72-4.95-2.31-9.77-3.08-14.72-.58-3.71-.49-7.45,4.18-9.03,34.38-11.67,54.82-37.44,69.55-68.95.92-1.96,1.87-3.91,2.86-5.84.23-.45.68-.8,2.04-2.36Z"/>
    <path class="cls-5" d="m255.66,316.54c10.95-2.29,21.89-2.28,32.83.12-10.94-.04-21.89-.08-32.83-.12Z"/>
    <path class="cls-5" d="m134.85,468.66c-2.2-9.32-2.41-18.64,0-27.96,0,9.32,0,18.64,0,27.96Z"/>
    <path class="cls-3" d="m285.33,251.36c-.64-.28-1.29-.56-1.93-.84,1-.54,1.47.13,1.93.84Z"/>
  </g>
  <g>
    <path class="cls-2" d="m534.68,753.28c4.04-11.29,8.21-22.54,12.03-33.91,1.11-3.29,2.87-4.96,6.03-3.87,3.79,1.3.98,3.88.36,5.64-5.49,15.66-11.15,31.27-16.76,46.89-.58,1.61-.72,3.42-2.8,5.04-4.61-13.11-9.13-25.97-14.32-40.71-5.69,14.22-10.79,26.98-16.39,40.97-6.83-19.79-13.27-38.47-19.81-57.4,4.76-1.66,7.31-.71,8.91,5.35,2.86,10.79,7.08,21.23,11.23,33.26,6.6-13.62,10.65-26.51,16.21-40.08,4.89,13.77,9.36,26.37,13.83,38.97.48-.05.97-.1,1.45-.16Z"/>
    <path class="cls-2" d="m344.37,714.08c18.91-.08,30.8,11.21,31.15,28.97.38,19.54-13.7,30.86-30.71,30.9-18.28.05-29.81-12.73-30.61-29.59-.76-15.86,13.8-31.79,30.17-30.29Zm23.28,30.49c1.78-14.64-6.54-23.06-21.71-25.04-11.99-1.56-22.93,8.59-24.1,21.22-1.67,17.91,9.4,26.07,22.27,27.93,12.27,1.78,22.26-9.16,23.55-24.11Z"/>
    <path class="cls-2" d="m401.01,733.62c.06,1.76.12,3.51.18,5.27-1.95,10.86-.36,21.81-.83,32.71-2.17.05-4.48.65-6.08-1.55-.05-16.85-.09-33.69-.14-50.54.85-.5.91-1.07.16-1.72-.47-5.59,1.69-2.44,3.12-.89,8.52,9.23,16.96,18.53,25.48,27.76,2.34,2.54,4.84,4.93,7.27,7.39.63,1.3,1.36,2.96,2.93,2.72,1.8-.28.84-1.87.64-2.98.12-12.28.25-24.57.37-36.85,1.74-.16,3.48-.33,5.23-.49.51.31,1.02.62,1.53.92-.12,19.12-.24,38.23-.35,57.35-11.48-11.94-22.93-23.9-34.45-35.8-1.45-1.5-2.42-3.62-4.75-4.12-.25.03-.5.06-.75.09l.44.73Z"/>
    <path class="cls-2" d="m772.57,772.28c-11.43-10.46-21.35-22.36-32.15-33.43-1.79-1.83-3.68-3.57-5.52-5.35-.36-.2-.73-.4-1.09-.6-.02.31-.05.63-.07.94.02.8.03,1.6.05,2.39-.15,11.79-.3,23.58-.45,35.37-4.04,2.15-6.68,2.56-6.6-3.64.24-17.57.08-35.14.08-54.39,13.19,14.43,25.48,27.87,37.77,41.31,1.63,1.56,2.56.21,2.53-1.04-.27-12.55,1.25-25.15-.68-37.67.55-.47,1.11-.94,1.66-1.41,1.17.58,2.36.58,3.56.11.39-.07.73.03,1.04.28-.05,19.04-.1,38.08-.15,57.12Z"/>
    <path class="cls-2" d="m84,743.21c1-11.95,5.73-21.58,17.43-26.51,11.84-4.99,23.21-4.04,33.81,3.47,1.58,1.12,3.24,2.12,1.29,4.58-1.86,2.35-3.05,1.96-5.19.3-11.57-9-31.3-6.2-37.47,6.56-4.85,10.03-3.63,23.18,5.21,30.53,10.18,8.46,18.85,8.61,29.91,1.39.9-.59,1.7-1.36,2.47-2.12,1.59-1.59,2.93-3.25,5.28-.72,2.62,2.81-.25,4.01-1.51,5.15-13.9,12.6-34.91,10.5-46.05-5-3.74-5.2-5.61-11.04-5.19-17.63Z"/>
    <path class="cls-2" d="m920.93,774.19c-7.59.05-12.56-1.87-17.32-4.32-1.22-.63-4.3-.75-2.6-3.24,1.05-1.54,2.16-4.14,5.62-2.06,5.88,3.53,12.19,6.26,19.3,2.45,4.41-2.37,7.54-5.63,7.07-10.68-.46-4.9-2.84-8.55-8.41-9.99-5.11-1.31-10.58-1.47-15.21-4.79-9.27-6.62-8.47-19.8,1.67-25.11,8.26-4.33,16.31-1.92,24.35.6,1.85.58,2.08,2.06,1.09,3.65-.89,1.43-1.71,3.49-3.9,1.84-4.52-3.41-9.65-1.58-14.51-1.9-4.81-.32-7.18,2.77-8.21,6.81-1.04,4.08.68,7.45,4.55,9.04,4.76,1.96,9.71,3.46,14.62,5.04,5.39,1.73,10.05,4.13,10.8,10.54.81,6.9-.58,13.18-6.54,17.36-4.24,2.97-9.19,4.56-12.38,4.75Z"/>
    <path class="cls-2" d="m876.9,756.34c1.25-6.76-2.63-8.94-8.38-9.61-5.17-.6-9.83-2.85-14.51-4.93-4.64-2.06-6.89-6.23-6.93-10.91-.05-5.91,2.68-10.87,8.02-13.96,7.82-4.54,15.83-2.94,23.81-.49,2.4.74,3.67,1.97,2.21,4.82-1.4,2.73-2.78,1.73-4.63.72-5.33-2.9-11.14-1.62-16.57-.91-3.73.49-6.32,4.67-6.15,8.23.25,5.25,4.58,8.01,9.31,9.55,2.24.73,4.7.77,6.99,1.36,12.11,3.14,14.13,6.08,13.53,19.41-.31,7.01-5.5,10.6-14.99,13.5-7.14,2.18-12.58-.77-18.52-2.88-1.79-.63-4.56-1.27-2.91-4.52,1.42-2.8,3.1-1.82,5.31-.94,5.62,2.24,10.96,6.23,17.65,2.63,4.6-2.48,8.03-5.26,6.75-11.07Z"/>
    <path class="cls-2" d="m573.69,715.31c.44-.23.87-.45,1.31-.68.59.55,1.19.54,1.79.04,2.91-.01,5.82-.02,8.73-.03.56.73,1.14.73,1.75.06.72,0,1.44,0,2.16,0,.58.67,1.17.66,1.76,0,4.76,0,9.52.18,14.26-.05,3.7-.18,4.65,1.33,3.69,4.62-9.13.55-18.32-1.03-27.4.91-2.65,5.34-.66,10.97-1.01,16.46-.17,2.62,2.11,2.27,3.76,2.29,4.99.07,9.98-.03,14.96.1,1.89.05,4.74-1.07,4.57,2.68-.14,3.19-2.6,2.28-4.33,2.32-4.77.1-9.55.22-14.31-.04-3.51-.19-5.15.61-4.89,4.57.4,6.03-1.98,13.81.97,17.69,3.17,4.16,11.33.93,17.29,1.41,2.59.21,5.21.16,7.8.05,3.03-.13,3.01,1.67,2.61,3.8-11.66-.01-23.31-.03-34.97-.04-.16-18.72-.33-37.43-.49-56.15Z"/>
    <path class="cls-2" d="m156.44,750.59c0-2.14,0-4.28,0-6.43,1.2-1.76,1.23-3.53,0-5.3,0-2.14,0-4.28,0-6.42.15-.14.44-.31.42-.41-.08-.36-.27-.69-.42-1.03-.02-3.46-.04-6.92-.06-10.37,1.39-1.67.94-3.44.31-5.23,10.86-1.77,21.8-.05,32.69-.71,3.58-.22,2.89,2.23,2.55,4.38-2.37.09-4.74.1-7.1.29-7.02.57-14.15-1.28-21.11.9-2.58,5.44-.72,11.18-1.11,16.77-.19,2.74,2.36,1.63,3.77,2.07,3.95,1.42,7.91,1.47,11.87.01,2.14.02,4.28.05,6.42.07.87.35,1.74.7,2.61,1.04.69,3.37-1.11,4.03-4,3.96-5.4-.14-10.82.09-16.22-.12-3.09-.12-4.22.88-4.12,4.03.18,6.05.04,12.11.03,18.16-.29.86.07,1.22.92,1.2,7.98.11,15.97.26,23.95.3,4.42.02,4.54,1.8,2.18,4.8-2.12-1.62-4.59-.89-6.9-.93-8.86-.15-17.72-.18-26.59-.25-.03-6.45-.06-12.9-.09-19.35.15-.14.45-.31.42-.41-.08-.36-.28-.69-.43-1.03Z"/>
    <path class="cls-2" d="m805.08,743.76c-.85.12-1.7.24-2.55.35-1.85,7.82-2.29,15.63.25,23.4,7.68.01,15.37.14,23.05-.02,3.11-.06,5.08.44,4.23,4.13-9.07.03-18.16-.22-27.21.2-5.26.24-7.06-1.19-6.98-6.75.25-16.63-.13-33.27-.26-49.91,10.5-1.42,21.05-.09,31.57-.46.61.52,1.2.51,1.78-.05.46.18.91.36,1.37.54.16,3.91-2.14,4.24-5.41,4.35-7.5.26-15.08-1.32-22.5.86-2.48,5.14-.55,10.58-1.07,15.86-.39,3.6,1.98,2.6,3.91,2.35,7.19,1.06,14.64-1.4,21.69,1.62-.24.42-.21.82.09,1.21-.26.52-.52,1.03-.78,1.55-7.05.4-14.17-1.14-21.17.77Z"/>
    <path class="cls-2" d="m225.56,747.96c-5.71-10.66-11.43-21.33-17.19-32.09,4.85-1.37,7.59-.21,9.63,4.29,3.04,6.7,6.97,13,11.16,20.64,3.86-7.16,7.69-13.53,10.78-20.24,2.19-4.75,5.06-6.45,10.01-4.66-5.8,10.66-11.59,21.31-17.38,31.96-1.81,7.8-.13,15.74-.91,23.58-4.02.81-5.2-.89-5.29-4.88-.15-6.2,1.21-12.49-.79-18.6Z"/>
    <path class="cls-2" d="m269.88,771.43c-.07-16.67.11-33.35-.34-50.01-.15-5.45,1.82-6.8,6.58-5.96.03,15.36,0,30.71.17,46.07.02,1.93-1.21,4.37,1.3,5.83,7.38.06,14.77.24,22.15.13,3.05-.04,4.6.72,3.77,4.02-7.82.79-15.74-1.03-23.5.96-.82.01-1.64.02-2.45.03-2.36-1.72-5.14-.52-7.66-1.08Z"/>
    <path class="cls-2" d="m637.9,772.54c-.82-.01-1.65-.03-2.47-.04-1.96-1.48-4.29-.6-6.41-1.02-.15-18.72-.31-37.44-.46-56.17.54-.25,1.07-.5,1.61-.75,1.71.29,3.43.59,5.14.88.01,15.57.17,31.13-.05,46.7-.06,4.23,1.14,5.66,5.43,5.41,6.47-.37,12.96-.13,19.45-.16.46.05.92.1,1.38.15,0,0-.1.23-.1.23.27.54.53,1.07.8,1.61-.15.81-.3,1.62-.45,2.43-7.96,0-15.96-1.14-23.87.71Z"/>
    <path class="cls-2" d="m682.66,714.68c.44.18.88.37,1.32.55-.06,15.88-.15,31.77-.16,47.65,0,1.6-.75,3.57,1.33,4.63,7.34.04,14.69.17,22.03.07,2.9-.04,4.71.46,3.76,3.9-8.66.02-17.33-.21-25.97.14-4.96.2-6.77-1.12-6.68-6.45.3-16.66.02-33.34-.03-50.01.88-.14,1.76-.29,2.64-.43.59-.02,1.18-.04,1.76-.05Z"/>
    <path class="cls-2" d="m795.61,715.17c.13,16.64.51,33.28.26,49.91-.08,5.56,1.72,6.99,6.98,6.75,9.06-.41,18.14-.17,27.21-.2-1.49,2.51-3.92,1.28-5.89,1.31-8.27.12-16.54-.02-24.81.01-2.73.01-4.62-.47-4.6-3.87.1-17.62.07-35.25.12-52.87,0-.35.47-.69.72-1.03Z"/>
    <path class="cls-2" d="m678.26,715.16c.05,16.67.33,33.34.03,50.01-.1,5.33,1.72,6.65,6.68,6.45,8.65-.35,17.31-.13,25.97-.14-6.14,2.89-12.63,1.11-18.93,1.22-14.85.26-14.86.05-14.88-14.92-.02-12.4-.04-24.79.03-37.19,0-1.84-.87-3.95,1.1-5.43Z"/>
    <path class="cls-2" d="m440.52,772.72c.12-19.12.24-38.23.35-57.35,1.57,1.63,1.06,3.68,1.06,5.58.01,15.44,0,30.89-.07,46.33,0,1.89.53,3.98-1.35,5.44Z"/>
    <path class="cls-2" d="m573.69,715.31c.16,18.72.33,37.43.49,56.15-.13.42-.15.84-.08,1.27-1.49-1-1.41-2.54-1.41-4.05-.02-16.59-.03-33.18-.04-49.77,0-1.29-.03-2.6,1.03-3.6Z"/>
    <path class="cls-2" d="m628.56,715.31c.15,18.72.31,37.44.46,56.17-.08.4-.09.81-.02,1.21-1.52-.97-1.43-2.52-1.43-4.03-.03-16.59-.06-33.18-.07-49.77,0-1.28-.03-2.61,1.06-3.58Z"/>
    <path class="cls-2" d="m772.57,772.28c.05-19.04.1-38.08.15-57.12,1.12.65,1.07,1.75,1.07,2.83,0,17.31,0,34.62-.05,51.92,0,.86.59,2.27-1.16,2.37Z"/>
    <path class="cls-2" d="m685.14,767.51c-2.08-1.07-1.33-3.03-1.33-4.63,0-15.88.09-31.77.16-47.65,1.97,2.73.92,5.85.96,8.77.17,14.5.16,29.01.21,43.51Z"/>
    <path class="cls-2" d="m766.45,716.18c1.93,12.52.41,25.11.68,37.67.03,1.25-.9,2.6-2.53,1.04,2.6-1.69,1.31-4.31,1.37-6.47.28-10.74.35-21.49.49-32.23Z"/>
    <path class="cls-2" d="m733.34,771.6c.15-11.79.3-23.58.45-35.37,1.91,11.7.8,23.45.59,35.19,0,.07-.68.12-1.04.18Z"/>
    <path class="cls-2" d="m574.1,772.73c-.08-.43-.05-.85.08-1.27,11.66.02,23.31.03,34.97.04-.93,2.28-2.96,1.35-4.5,1.36-10.18.03-20.37-.07-30.55-.13Z"/>
    <path class="cls-2" d="m156.53,771.38c8.86.07,17.73.1,26.59.25,2.31.04,4.78-.69,6.9.93-10.38.11-20.76.22-31.13.32-1.08,0-2.2-.01-2.35-1.5Z"/>
    <path class="cls-2" d="m802.42,720.41c7.42-2.19,15-.6,22.5-.86,3.26-.11,5.56-.44,5.41-4.35,2,3.72,1.14,5.64-3.34,5.55-8.19-.17-16.38-.23-24.56-.33Z"/>
    <path class="cls-2" d="m400.36,771.61c.47-10.9-1.12-21.85.83-32.71.75,10.87.49,21.75.22,32.63-.35.05-.7.07-1.05.09Z"/>
    <path class="cls-2" d="m581.73,720.18c9.08-1.94,18.28-.36,27.4-.91-9.05,2.71-18.26,1-27.4.91Z"/>
    <path class="cls-2" d="m802.79,767.51c-2.54-7.77-2.1-15.58-.25-23.4.08,7.8.17,15.6.25,23.4Z"/>
    <path class="cls-2" d="m637.9,772.54c7.91-1.85,15.91-.7,23.87-.71-7.9,2.17-15.9.92-23.87.71Z"/>
    <path class="cls-2" d="m280,772.47c7.77-2,15.69-.17,23.5-.96-7.72,3.14-15.65,1.05-23.5.96Z"/>
    <path class="cls-2" d="m805.08,743.76c7-1.91,14.12-.36,21.17-.77-6.97,2.58-14.1.95-21.17.77Z"/>
    <path class="cls-2" d="m805.25,738.62c-1.92.25-4.3,1.26-3.91-2.35,1.68.16,4.05-.84,3.91,2.35Z"/>
    <path class="cls-2" d="m400.36,771.61c.35-.01.7-.04,1.05-.09-2.85,1.81-5.69,3.6-7.13-1.47,1.6,2.2,3.91,1.61,6.08,1.55Z"/>
    <path class="cls-2" d="m269.88,771.43c2.53.55,5.3-.65,7.66,1.08-2.6-.04-5.46,1.8-7.66-1.08Z"/>
    <path class="cls-2" d="m629,772.69c-.06-.41-.06-.81.02-1.21,2.13.42,4.46-.46,6.41,1.02-2.14.06-4.29.13-6.43.19Z"/>
    <path class="cls-2" d="m439.34,714.45c-1.74.16-3.49.33-5.23.49,1.61-1.61,3.41-1.1,5.23-.49Z"/>
    <path class="cls-2" d="m156.7,715.4c.63,1.79,1.08,3.56-.31,5.23-.45-1.78-.8-3.55.31-5.23Z"/>
    <path class="cls-2" d="m156.45,738.86c1.22,1.77,1.19,3.54,0,5.3-.58-1.77-.57-3.53,0-5.3Z"/>
    <path class="cls-2" d="m635.3,715.45c-1.71-.29-3.43-.59-5.14-.88,1.87-.64,3.77-1.42,5.14.88Z"/>
    <path class="cls-2" d="m771.68,714.88c-1.2.47-2.39.48-3.56-.11,1.21-.55,2.4-.58,3.56.11Z"/>
    <path class="cls-2" d="m187.28,740.23c-.87-.35-1.74-.7-2.61-1.04,1.13-.3,2.31-.73,2.61,1.04Z"/>
    <path class="cls-2" d="m156.45,731c.15.34.34.67.42,1.03.02.1-.27.27-.42.41,0-.48,0-.96,0-1.44Z"/>
    <path class="cls-2" d="m156.44,750.59c.15.34.34.67.43,1.03.02.1-.27.27-.42.41,0-.48,0-.96,0-1.44Z"/>
    <path class="cls-2" d="m682.66,714.68c-.59.02-1.18.04-1.76.05.59-.02,1.18-.04,1.76-.05Z"/>
    <path class="cls-2" d="m587.26,714.71c-.61.67-1.19.66-1.75-.06.58.02,1.16.04,1.75.06Z"/>
    <path class="cls-2" d="m661.52,767.55c-.46-.05-.92-.1-1.38-.15.53-.53.99-.53,1.38.15Z"/>
    <path class="cls-2" d="m662.22,769.4c-.27-.54-.53-1.07-.8-1.61,1.26.04,1.26.71.8,1.61Z"/>
    <path class="cls-2" d="m576.78,714.67c-.61.51-1.21.51-1.79-.04.6.01,1.2.02,1.79.04Z"/>
    <path class="cls-2" d="m591.18,714.71c-.59.66-1.17.66-1.76,0,.58,0,1.17,0,1.76,0Z"/>
    <path class="cls-2" d="m828.95,714.66c-.58.56-1.17.57-1.78.05.59-.02,1.18-.03,1.78-.05Z"/>
    <path class="cls-2" d="m827.03,741.44c-.3-.38-.33-.79-.09-1.21.13.28.29.54.37.83.02.1-.18.25-.28.38Z"/>
    <path class="cls-2" d="m733.74,733.84c.02-.31.05-.63.07-.94.36.2.73.4,1.09.6-.34.27-.73.38-1.16.34Z"/>
    <path class="cls-2" d="m394.3,717.79c.76.65.69,1.22-.16,1.72.05-.57.11-1.15.16-1.72Z"/>
    <path class="cls-2" d="m163.89,767.46c-.85.02-1.21-.34-.92-1.2.31.4.61.8.92,1.2Z"/>
    <path class="cls-2" d="m401.01,733.62l-.44-.73c.25-.03.5-.06.75-.09,0,0,.1.51.1.51,0,0-.42.31-.42.31Z"/>
  </g>
</svg>