<svg width="94" height="94" viewBox="0 0 94 94" fill="none" xmlns="http://www.w3.org/2000/svg">
<path opacity="0.2" d="M17.2052 67.143H9.65161C8.02927 67.143 6.71411 68.4582 6.71411 70.0805V77.6341C6.71411 79.2564 8.02927 80.5716 9.65161 80.5716H17.2052C18.8275 80.5716 20.1427 79.2564 20.1427 77.6341V70.0805C20.1427 68.4582 18.8275 67.143 17.2052 67.143Z" fill="#0AA59B"/>
<path opacity="0.2" d="M33.9911 53.714H26.4375C24.8152 53.714 23.5 55.0291 23.5 56.6515V77.6336C23.5 79.2559 24.8152 80.5711 26.4375 80.5711H33.9911C35.6134 80.5711 36.9286 79.2559 36.9286 77.6336V56.6515C36.9286 55.0291 35.6134 53.714 33.9911 53.714Z" fill="#0AA59B"/>
<path opacity="0.2" d="M50.7772 40.286H43.2236C41.6013 40.286 40.2861 41.6012 40.2861 43.2235V77.6343C40.2861 79.2566 41.6013 80.5718 43.2236 80.5718H50.7772C52.3995 80.5718 53.7147 79.2566 53.7147 77.6343V43.2235C53.7147 41.6012 52.3995 40.286 50.7772 40.286Z" fill="#0AA59B"/>
<path opacity="0.2" d="M67.5629 26.857H60.0093C58.3869 26.857 57.0718 28.1722 57.0718 29.7945V77.6338C57.0718 79.2561 58.3869 80.5713 60.0093 80.5713H67.5629C69.1852 80.5713 70.5004 79.2561 70.5004 77.6338V29.7945C70.5004 28.1722 69.1852 26.857 67.5629 26.857Z" fill="#0AA59B"/>
<path opacity="0.2" d="M84.349 13.4289H76.7954C75.1731 13.4289 73.8579 14.744 73.8579 16.3664V77.6341C73.8579 79.2564 75.1731 80.5716 76.7954 80.5716H84.349C85.9713 80.5716 87.2865 79.2564 87.2865 77.6341V16.3664C87.2865 14.744 85.9713 13.4289 84.349 13.4289Z" fill="#0AA59B"/>
</svg>
